<svg width="263" height="24" viewBox="0 0 263 24" fill="none" xmlns="http://www.w3.org/2000/svg">
<path d="M4.06055 5.15039C4.06055 4.20117 3.98438 3.50977 3.83203 3.07617C3.67969 2.63086 3.45703 2.33203 3.16406 2.17969C2.87109 2.02734 2.39648 1.88672 1.74023 1.75781C0.943359 1.58203 0.369141 1.44141 0.0175781 1.33594L0.0527344 0.439453H11.9355V1.35352C11.5957 1.49414 11.291 1.59961 11.0215 1.66992C10.752 1.72852 10.3945 1.79883 9.94922 1.88086C9.38672 1.97461 8.9707 2.0918 8.70117 2.23242C8.43164 2.36133 8.2207 2.63672 8.06836 3.05859C7.92773 3.48047 7.85742 4.14258 7.85742 5.04492V17.8418C7.85742 19.2598 7.99219 20.2441 8.26172 20.7949C8.54297 21.334 9.06445 21.6738 9.82617 21.8145C10.5879 21.9551 11.9824 22.0254 14.0098 22.0254C15.2988 22.0254 16.3828 21.8613 17.2617 21.5332C18.1523 21.1934 18.8613 20.5195 19.3887 19.5117L19.6523 18.9844C19.8398 18.5977 20.0098 18.2754 20.1621 18.0176C20.3145 17.748 20.4902 17.502 20.6895 17.2793L21.7441 17.3145L20.6367 23.5195C19.0664 23.3906 17.7832 23.3262 16.7871 23.3262H0.0351562L0 22.377C0.175781 22.3184 0.550781 22.207 1.125 22.043C1.79297 21.8672 2.32031 21.6973 2.70703 21.5332C3.09375 21.3574 3.41602 21.082 3.67383 20.707C3.93164 20.3203 4.06055 19.7871 4.06055 19.1074V5.15039ZM65.0355 23.4844C64.848 23.5195 64.6605 23.5371 64.473 23.5371C64.2504 23.5371 63.9164 23.502 63.4711 23.4316C63.0258 23.3613 62.6859 23.3262 62.4516 23.3262H44.4164L44.3812 22.4648C44.7445 22.2656 45.0785 22.125 45.3832 22.043C45.6996 21.9492 46.0453 21.873 46.4203 21.8145C46.8891 21.7324 47.2289 21.627 47.4398 21.498C47.6625 21.3691 47.8324 21.0938 47.9496 20.6719C48.0668 20.2383 48.1254 19.5586 48.1254 18.6328V5.32617C48.1254 4.41211 48.0492 3.73828 47.8969 3.30469C47.7562 2.87109 47.5453 2.57227 47.2641 2.4082C46.9828 2.23242 46.5141 2.04492 45.8578 1.8457C45.7523 1.81055 45.5473 1.74609 45.2426 1.65234C44.9496 1.55859 44.6625 1.45313 44.3812 1.33594L44.4164 0.439453H62.3461C62.5102 0.439453 62.6859 0.427734 62.8734 0.404297C63.0727 0.380859 63.2133 0.363281 63.2953 0.351562C63.6469 0.292969 63.9633 0.263672 64.2445 0.263672C64.4906 0.263672 64.7074 0.287109 64.8949 0.333984V5.80078L63.9809 5.83594C63.7816 5.63672 63.6176 5.41406 63.4887 5.16797C63.3598 4.92188 63.2133 4.59961 63.0492 4.20117C62.8148 3.61523 62.5805 3.1582 62.3461 2.83008C62.1234 2.50195 61.7895 2.26172 61.3441 2.10938C60.6879 1.89844 59.8734 1.76367 58.9008 1.70508C57.9281 1.64648 56.8031 1.61719 55.5258 1.61719C54.0258 1.61719 52.8422 1.66992 51.975 1.77539C51.9281 2.30273 51.9047 2.90625 51.9047 3.58594V10.7227H56.9672C57.893 10.7227 58.5844 10.6523 59.0414 10.5117C59.4984 10.3711 59.85 10.1426 60.0961 9.82617C60.3539 9.50977 60.7055 8.94727 61.1508 8.13867L61.4145 7.66406H62.4164V15.2051L61.4145 15.2578C61.0395 14.25 60.559 13.4648 59.973 12.9023C59.3988 12.3398 58.6254 12.0586 57.6527 12.0586H51.9047V17.9824C51.9047 19.2129 52.0453 20.1211 52.3266 20.707C52.6195 21.293 53.0355 21.6738 53.5746 21.8496C54.1254 22.0137 54.9047 22.0957 55.9125 22.0957H57.6352C59.1117 22.0957 60.3832 21.9316 61.4496 21.6035C62.5277 21.2637 63.3246 20.5781 63.8402 19.5469L64.0863 19.002C64.2973 18.5449 64.4672 18.2051 64.5961 17.9824C64.725 17.748 64.8891 17.5254 65.0883 17.3145H66.1957L65.0355 23.4844ZM113.512 21.6562C112.282 22.3008 110.87 22.8164 109.276 23.2031C107.682 23.5898 106.071 23.7832 104.442 23.7832C101.794 23.7832 99.4617 23.3027 97.4461 22.3418C95.4422 21.3691 93.8836 20.0039 92.7703 18.2461C91.6687 16.4766 91.118 14.4316 91.118 12.1113C91.118 9.73242 91.7508 7.62305 93.0164 5.7832C94.282 3.94336 95.9812 2.51953 98.1141 1.51172C100.247 0.503906 102.573 0 105.093 0C106.475 0 107.741 0.105469 108.889 0.316406C110.05 0.527344 111.356 0.890625 112.809 1.40625L113.337 6.71484C112.973 6.75 112.634 6.76758 112.317 6.76758C112.153 6.62695 112.001 6.44531 111.86 6.22266C111.731 6 111.55 5.66602 111.315 5.2207C111.198 4.98633 111.075 4.75781 110.946 4.53516C110.817 4.30078 110.7 4.11914 110.595 3.99023C109.118 2.23242 107.132 1.35352 104.636 1.35352C102.854 1.35352 101.255 1.79297 99.8367 2.67188C98.4187 3.55078 97.3113 4.76367 96.5145 6.31055C95.7176 7.8457 95.3191 9.5625 95.3191 11.4609C95.3191 13.5117 95.7117 15.3574 96.4969 16.998C97.2937 18.6387 98.407 19.9219 99.8367 20.8477C101.266 21.7734 102.901 22.2363 104.741 22.2363C105.714 22.2363 106.569 22.1543 107.307 21.9902C108.057 21.8145 108.766 21.5156 109.434 21.0938C109.575 19.8984 109.645 18.4102 109.645 16.6289C109.645 15.5156 109.481 14.5078 109.153 13.6055C109.024 13.2422 108.778 12.9902 108.415 12.8496C108.063 12.6973 107.583 12.5742 106.973 12.4805C106.434 12.3867 106.059 12.2988 105.848 12.2168C105.848 12.041 105.854 11.8652 105.866 11.6895C105.878 11.502 105.884 11.373 105.884 11.3027H116.43C116.43 11.373 116.436 11.502 116.448 11.6895C116.46 11.8652 116.466 12.041 116.466 12.2168C116.313 12.2754 116.143 12.334 115.956 12.3926C115.393 12.5918 114.954 12.7793 114.637 12.9551C114.321 13.1309 114.052 13.4004 113.829 13.7637C113.618 14.1152 113.512 14.5898 113.512 15.1875V21.6562ZM160.302 23.4844C160.114 23.5195 159.927 23.5371 159.739 23.5371C159.517 23.5371 159.183 23.502 158.738 23.4316C158.292 23.3613 157.952 23.3262 157.718 23.3262H139.683L139.648 22.4648C140.011 22.2656 140.345 22.125 140.65 22.043C140.966 21.9492 141.312 21.873 141.687 21.8145C142.155 21.7324 142.495 21.627 142.706 21.498C142.929 21.3691 143.099 21.0938 143.216 20.6719C143.333 20.2383 143.392 19.5586 143.392 18.6328V5.32617C143.392 4.41211 143.316 3.73828 143.163 3.30469C143.023 2.87109 142.812 2.57227 142.53 2.4082C142.249 2.23242 141.78 2.04492 141.124 1.8457C141.019 1.81055 140.814 1.74609 140.509 1.65234C140.216 1.55859 139.929 1.45313 139.648 1.33594L139.683 0.439453H157.613C157.777 0.439453 157.952 0.427734 158.14 0.404297C158.339 0.380859 158.48 0.363281 158.562 0.351562C158.913 0.292969 159.23 0.263672 159.511 0.263672C159.757 0.263672 159.974 0.287109 160.161 0.333984V5.80078L159.247 5.83594C159.048 5.63672 158.884 5.41406 158.755 5.16797C158.626 4.92188 158.48 4.59961 158.316 4.20117C158.081 3.61523 157.847 3.1582 157.613 2.83008C157.39 2.50195 157.056 2.26172 156.611 2.10938C155.954 1.89844 155.14 1.76367 154.167 1.70508C153.195 1.64648 152.07 1.61719 150.792 1.61719C149.292 1.61719 148.109 1.66992 147.241 1.77539C147.195 2.30273 147.171 2.90625 147.171 3.58594V10.7227H152.234C153.159 10.7227 153.851 10.6523 154.308 10.5117C154.765 10.3711 155.116 10.1426 155.363 9.82617C155.62 9.50977 155.972 8.94727 156.417 8.13867L156.681 7.66406H157.683V15.2051L156.681 15.2578C156.306 14.25 155.825 13.4648 155.239 12.9023C154.665 12.3398 153.892 12.0586 152.919 12.0586H147.171V17.9824C147.171 19.2129 147.312 20.1211 147.593 20.707C147.886 21.293 148.302 21.6738 148.841 21.8496C149.392 22.0137 150.171 22.0957 151.179 22.0957H152.902C154.378 22.0957 155.65 21.9316 156.716 21.6035C157.794 21.2637 158.591 20.5781 159.107 19.5469L159.353 19.002C159.564 18.5449 159.734 18.2051 159.863 17.9824C159.991 17.748 160.155 17.5254 160.355 17.3145H161.462L160.302 23.4844ZM190.093 4.14844C189.789 3.65625 189.472 3.26367 189.144 2.9707C188.816 2.67773 188.488 2.45508 188.16 2.30273C187.832 2.15039 187.392 1.98047 186.841 1.79297C186.314 1.61719 185.904 1.4707 185.611 1.35352V0.439453H191.746L208.287 17.543V6.48633C208.287 5.37305 208.129 4.35938 207.812 3.44531C207.683 3.07031 207.507 2.77734 207.285 2.56641C207.062 2.35547 206.822 2.20312 206.564 2.10938C206.306 2.01563 205.961 1.91602 205.527 1.81055C205.457 1.78711 205.275 1.74023 204.982 1.66992C204.701 1.58789 204.443 1.48828 204.209 1.37109C204.209 1.06641 204.226 0.755859 204.261 0.439453H213.525V1.38867C213.197 1.54102 212.857 1.6875 212.505 1.82812C211.65 2.20312 211.058 2.51367 210.73 2.75977C210.402 3.00586 210.168 3.39258 210.027 3.91992C209.898 4.43555 209.828 5.28516 209.816 6.46875C209.816 7.06641 209.804 7.95117 209.781 9.12305C209.769 10.0137 209.757 11.127 209.746 12.4629C209.734 13.7871 209.728 15.3398 209.728 17.1211C209.728 17.8945 209.798 19.043 209.939 20.5664C210.056 21.8555 210.121 22.8281 210.132 23.4844C209.91 23.5664 209.623 23.6074 209.271 23.6074C208.896 23.6074 208.562 23.5664 208.269 23.4844C207.425 22.4531 206.464 21.3574 205.386 20.1973L191.5 5.58984V17.9297C191.5 18.7148 191.599 19.5059 191.798 20.3027C191.892 20.7012 192.062 21.0117 192.308 21.2344C192.554 21.4453 192.818 21.5977 193.099 21.6914C193.392 21.7852 193.785 21.8789 194.277 21.9727C194.957 22.0781 195.461 22.2188 195.789 22.3945C195.789 22.6992 195.771 23.0098 195.736 23.3262H185.822C185.798 23.1152 185.787 22.7988 185.787 22.377L186.595 22.166C187.345 21.9785 187.937 21.7969 188.371 21.6211C188.816 21.4453 189.197 21.1582 189.513 20.7598C189.841 20.3613 190.035 19.8164 190.093 19.125V4.14844ZM241.453 5.57227C241.453 4.88086 241.395 4.17187 241.277 3.44531C241.207 3.09375 241.031 2.80664 240.75 2.58398C240.469 2.34961 240.146 2.16797 239.783 2.03906C239.432 1.89844 238.975 1.75195 238.412 1.59961C237.99 1.48242 237.691 1.39453 237.516 1.33594L237.551 0.439453H247.957C250.887 0.439453 253.465 0.820313 255.691 1.58203C257.918 2.34375 259.676 3.56836 260.965 5.25586C262.254 6.93164 262.898 9.09961 262.898 11.7598C262.898 13.7988 262.406 15.7031 261.422 17.4727C260.449 19.2305 259.002 20.6484 257.08 21.7266C255.17 22.793 252.873 23.3262 250.189 23.3262H237.551L237.516 22.4121L238.447 22.166C239.104 22.0137 239.631 21.8613 240.029 21.709C240.428 21.5566 240.762 21.3047 241.031 20.9531C241.312 20.5898 241.453 20.0977 241.453 19.4766V5.57227ZM245.232 18.5625C245.232 19.582 245.426 20.3848 245.812 20.9707C246.211 21.5566 246.885 21.873 247.834 21.9199C248.49 21.9551 249.164 21.9727 249.855 21.9727C251.777 21.9727 253.406 21.5273 254.742 20.6367C256.078 19.7344 257.074 18.5684 257.73 17.1387C258.387 15.709 258.715 14.2031 258.715 12.6211C258.715 10.5234 258.34 8.66602 257.59 7.04883C256.84 5.41992 255.674 4.13672 254.092 3.19922C252.521 2.26172 250.553 1.79297 248.186 1.79297H245.232V18.5625Z" fill="white"/>
</svg>
